<svg width="12" height="22" viewBox="0 0 12 22" fill="none" xmlns="http://www.w3.org/2000/svg">
<path d="M0.354839 11.7172H2.76639V21.6452C2.76639 21.8412 2.92522 22 3.12123 22H7.21011C7.40612 22 7.56495 21.8412 7.56495 21.6452V11.764H10.3372C10.5175 11.764 10.6691 11.6287 10.6897 11.4497L11.1108 7.79467C11.1223 7.69411 11.0905 7.59341 11.0232 7.51797C10.9559 7.44246 10.8595 7.39924 10.7584 7.39924H7.56509V5.10812C7.56509 4.41746 7.93696 4.06723 8.67048 4.06723C8.77502 4.06723 10.7584 4.06723 10.7584 4.06723C10.9544 4.06723 11.1132 3.90834 11.1132 3.71239V0.357465C11.1132 0.161452 10.9544 0.00262581 10.7584 0.00262581H7.88097C7.86067 0.00163226 7.81561 0 7.74918 0C7.24992 0 5.51455 0.0980064 4.14373 1.3591C2.62488 2.7566 2.83601 4.42988 2.88647 4.71999V7.39917H0.354839C0.158826 7.39917 0 7.55799 0 7.75401V11.3623C0 11.5583 0.158826 11.7172 0.354839 11.7172Z" fill="#9FA0AF"/>
</svg>
