<svg width="26" height="22" viewBox="0 0 26 22" fill="none" xmlns="http://www.w3.org/2000/svg">
<path d="M25.4108 2.45666C25.0024 2.63783 24.5824 2.79072 24.1533 2.91485C24.6613 2.34034 25.0487 1.66434 25.2851 0.924593C25.3381 0.758781 25.2832 0.577284 25.1469 0.468839C25.0107 0.36031 24.8216 0.34731 24.6717 0.436129C23.7605 0.976594 22.7773 1.365 21.7465 1.59212C20.7081 0.577452 19.2977 0 17.8397 0C14.7621 0 12.2582 2.5038 12.2582 5.58136C12.2582 5.82375 12.2735 6.06479 12.3039 6.30248C8.48482 5.96717 4.93431 4.09005 2.49618 1.0993C2.40929 0.992697 2.27544 0.935245 2.13839 0.946232C2.00126 0.956968 1.87806 1.0343 1.80878 1.15314C1.31428 2.00166 1.05285 2.97214 1.05285 3.95955C1.05285 5.30442 1.53301 6.58043 2.3812 7.57749C2.12329 7.48817 1.87302 7.37654 1.63416 7.24394C1.50592 7.17256 1.34942 7.17365 1.22202 7.2467C1.09453 7.31975 1.0146 7.45412 1.01125 7.60097C1.01066 7.62572 1.01066 7.65046 1.01066 7.67554C1.01066 9.68299 2.09109 11.4903 3.74293 12.4754C3.60102 12.4612 3.45919 12.4407 3.31829 12.4137C3.17302 12.386 3.02365 12.4369 2.92569 12.5477C2.82756 12.6584 2.7951 12.8127 2.84031 12.9536C3.45173 14.8625 5.0259 16.2666 6.92893 16.6947C5.35056 17.6833 3.54558 18.2011 1.65077 18.2011C1.2554 18.2011 0.857766 18.1779 0.468605 18.1318C0.275282 18.1088 0.0904306 18.223 0.024592 18.4068C-0.0412467 18.5908 0.0285339 18.7958 0.193005 18.9012C2.62719 20.462 5.44181 21.287 8.33243 21.287C14.015 21.287 17.5699 18.6073 19.5513 16.3593C22.0222 13.5562 23.4393 9.84603 23.4393 6.18012C23.4393 6.02697 23.4369 5.87231 23.4322 5.71816C24.407 4.9837 25.2463 4.09483 25.9293 3.0732C26.033 2.91804 26.0218 2.71297 25.9016 2.57014C25.7816 2.42723 25.5816 2.38101 25.4108 2.45666Z" fill="#9FA0AF"/>
</svg>
